<?xml version="1.0" standalone="no"?>
<!DOCTYPE svg PUBLIC "-//W3C//DTD SVG 20010904//EN"
 "http://www.w3.org/TR/2001/REC-SVG-20010904/DTD/svg10.dtd">
<svg version="1.0" xmlns="http://www.w3.org/2000/svg"
 width="512.000000pt" height="512.000000pt" viewBox="0 0 512.000000 512.000000"
 preserveAspectRatio="xMidYMid meet">

<g transform="translate(0.000000,512.000000) scale(0.100000,-0.100000)"
fill="#D9D9D9" stroke="none">
<path d="M2504 4806 c-17 -8 -43 -29 -57 -47 -13 -19 -172 -331 -351 -693
-179 -363 -327 -661 -329 -663 -3 -2 -472 -72 -1177 -173 -151 -22 -291 -45
-310 -51 -82 -27 -118 -83 -99 -153 15 -56 -6 -34 639 -661 96 -94 240 -234
320 -312 l145 -142 -19 -108 c-10 -59 -65 -380 -122 -713 -58 -333 -106 -630
-106 -661 -2 -109 59 -162 159 -136 26 7 233 110 458 229 226 118 520 273 653
343 l244 128 66 -35 c37 -20 283 -150 547 -288 264 -139 535 -281 601 -316
130 -69 187 -82 238 -55 64 35 70 116 26 371 -122 703 -210 1221 -210 1232 0
8 241 250 536 538 564 550 584 573 569 640 -10 46 -41 77 -93 94 -26 9 -373
63 -771 121 -399 58 -726 106 -727 108 -2 2 -153 306 -337 677 -184 371 -345
685 -358 697 -24 22 -70 43 -92 43 -7 -1 -26 -7 -43 -14z"/>
</g>
</svg>
